<?xml version="1.0" encoding="UTF-8" standalone="no" ?>
<!DOCTYPE svg PUBLIC "-//W3C//DTD SVG 1.1//EN" "http://www.w3.org/Graphics/SVG/1.1/DTD/svg11.dtd">
<svg xmlns="http://www.w3.org/2000/svg" xmlns:xlink="http://www.w3.org/1999/xlink" version="1.1" width="1080" height="1080" viewBox="0 0 1080 1080" xml:space="preserve">
<desc>Created with Fabric.js 5.2.4</desc>
<defs>
</defs>
<g transform="matrix(1 0 0 1 540 540)" id="0ce7afc0-24ad-4dab-9339-843433283c90"  >
<rect style="stroke: none; stroke-width: 1; stroke-dasharray: none; stroke-linecap: butt; stroke-dashoffset: 0; stroke-linejoin: miter; stroke-miterlimit: 4; fill: rgb(225, 96, 44); fill-rule: nonzero; opacity: 1; visibility: hidden;" vector-effect="non-scaling-stroke"  x="-540" y="-540" rx="0" ry="0" width="1080" height="1080" />
</g>
<g transform="matrix(1 0 0 1 540 540)" id="d1560e77-6385-499a-849a-9a75db8f9756"  >
</g>
<g transform="matrix(0.5 0 0 0.5 540 540)"  >
<g style="" vector-effect="non-scaling-stroke"   >
		<g transform="matrix(1 0 0 1 -322.55 -486.98)"  >
<path style="stroke: none; stroke-width: 1; stroke-dasharray: none; stroke-linecap: butt; stroke-dashoffset: 0; stroke-linejoin: miter; stroke-miterlimit: 4; fill: rgb(225, 96, 44); fill-rule: evenodd; opacity: 0.995;" vector-effect="non-scaling-stroke"  transform=" translate(-858.22, -694.37)" d="M 208.5 418.5 C 221.354 418.51 231.854 423.51 240 433.5 C 244.667 439.5 249.333 445.5 254 451.5 C 287.235 508.769 328.735 559.603 378.5 604 C 476.714 691.602 591.047 747.602 721.5 772 C 761.853 779.935 802.519 784.102 843.5 784.5 C 838.431 776.926 832.431 770.092 825.5 764 C 786.997 734.188 746.33 707.521 703.5 684 C 654.936 655.386 604.27 631.052 551.5 611 C 506.658 594.79 460.658 583.29 413.5 576.5 C 417.548 574.519 421.882 573.353 426.5 573 C 504.53 561.273 582.53 549.439 660.5 537.5 C 658.943 555.653 661.11 573.32 667 590.5 C 680.895 621.205 704.728 635.038 738.5 632 C 781.174 623.122 802.34 596.955 802 553.5 C 800.824 547.797 799.491 542.13 798 536.5 C 797.5 530.175 797.334 523.842 797.5 517.5 C 807.559 515.319 817.559 512.819 827.5 510 C 827.167 509.667 826.833 509.333 826.5 509 C 695.657 485.497 564.991 461.497 434.5 437 C 699.496 434.132 964.496 433.799 1229.5 436 C 1301.17 436.333 1372.83 436.667 1444.5 437 C 1468.1 440.197 1489.43 448.864 1508.5 463 C 1587.24 523.097 1617.07 602.263 1598 700.5 C 1586.45 774.78 1553.95 837.947 1500.5 890 C 1448.57 935.611 1387.91 961.611 1318.5 968 C 1257.92 973.649 1198.25 968.649 1139.5 953 C 1122.56 947.465 1105.56 942.131 1088.5 937 C 1072.62 933.324 1056.62 932.657 1040.5 935 C 913.406 961.167 785.739 964.501 657.5 945 C 437.595 906.521 264.762 796.021 139 613.5 C 132.493 603.157 126.493 592.49 121 581.5 C 114.842 569.538 112.175 556.871 113 543.5 C 115.191 534.977 120.691 530.477 129.5 530 C 143.434 529.755 155.6 534.255 166 543.5 C 265.558 710.978 409.725 820.478 598.5 872 C 720.853 903.334 844.186 907.834 968.5 885.5 C 959.528 876.362 949.528 868.529 938.5 862 C 929.881 855.726 920.548 850.726 910.5 847 C 801.289 849.409 694.955 833.076 591.5 798 C 427.657 738.466 298.49 635.633 204 489.5 C 197.813 479.793 192.146 469.793 187 459.5 C 183.488 448.746 184.488 438.413 190 428.5 C 194.997 422.796 201.163 419.462 208.5 418.5 Z" stroke-linecap="round" />
</g>
		<g transform="matrix(1 0 0 1 625.23 -515.82)"  >
<path style="stroke: none; stroke-width: 1; stroke-dasharray: none; stroke-linecap: butt; stroke-dashoffset: 0; stroke-linejoin: miter; stroke-miterlimit: 4; fill: rgb(225, 96, 44); fill-rule: evenodd; opacity: 0.997;" vector-effect="non-scaling-stroke"  transform=" translate(-1806, -665.53)" d="M 1600.5 427.5 C 1689.75 425.243 1778.08 433.076 1865.5 451 C 1941.46 469.321 2012.13 499.655 2077.5 542 C 2079.39 543.078 2080.39 544.745 2080.5 547 C 2075.16 593.686 2060.99 637.52 2038 678.5 C 1997.41 748.095 1942.91 804.262 1874.5 847 C 1842.95 867.181 1809.95 884.848 1775.5 900 C 1765 904.458 1754.33 905.125 1743.5 902 C 1718.48 891.658 1692.82 883.324 1666.5 877 C 1633.77 871.058 1600.77 868.558 1567.5 869.5 C 1569.76 862.305 1572.59 855.305 1576 848.5 C 1585.92 830.994 1595.59 813.327 1605 795.5 C 1619.31 761.614 1627.65 726.28 1630 689.5 C 1634.36 635.742 1627.69 583.408 1610 532.5 C 1599.38 503.414 1582.88 478.247 1560.5 457 C 1551.61 449.78 1541.94 443.78 1531.5 439 C 1539.19 435.909 1547.19 433.743 1555.5 432.5 C 1570.6 430.403 1585.6 428.736 1600.5 427.5 Z" stroke-linecap="round" />
</g>
		<g transform="matrix(1 0 0 1 -449.29 -623.44)"  >
<path style="stroke: none; stroke-width: 1; stroke-dasharray: none; stroke-linecap: butt; stroke-dashoffset: 0; stroke-linejoin: miter; stroke-miterlimit: 4; fill: rgb(225, 96, 44); fill-rule: evenodd; opacity: 0.987;" vector-effect="non-scaling-stroke"  transform=" translate(-731.48, -557.91)" d="M 726.5 504.5 C 754.56 502.949 772.726 515.615 781 542.5 C 787.714 567.692 780.881 588.192 760.5 604 C 743.71 612.339 726.376 613.672 708.5 608 C 692.465 599.62 682.965 586.453 680 568.5 C 676.285 532.855 691.785 511.522 726.5 504.5 Z" stroke-linecap="round" />
</g>
		<g transform="matrix(1 0 0 1 837.07 -333.87)"  >
<path style="stroke: none; stroke-width: 1; stroke-dasharray: none; stroke-linecap: butt; stroke-dashoffset: 0; stroke-linejoin: miter; stroke-miterlimit: 4; fill: rgb(225, 96, 44); fill-rule: evenodd; opacity: 0.996;" vector-effect="non-scaling-stroke"  transform=" translate(-2017.84, -847.48)" d="M 2114.5 574.5 C 2137.4 592.901 2156.57 614.567 2172 639.5 C 2208.41 700.733 2231.75 766.733 2242 837.5 C 2253.49 910.536 2250.16 982.869 2232 1054.5 C 2228.17 1070.34 2218.67 1081.18 2203.5 1087 C 2148.62 1108.78 2091.62 1119.78 2032.5 1120 C 1967.87 1122.37 1904.2 1115.7 1841.5 1100 C 1826.67 1095.78 1812.34 1090.28 1798.5 1083.5 C 1797.58 1078.51 1797.75 1073.51 1799 1068.5 C 1802.31 1054.95 1804.98 1041.29 1807 1027.5 C 1808.53 1010.26 1807.19 993.258 1803 976.5 C 1799.22 965.606 1794.89 954.94 1790 944.5 C 1788.35 940.578 1787.35 936.578 1787 932.5 C 1807.85 921.434 1829.02 910.934 1850.5 901 C 1915.02 866.8 1971.18 821.967 2019 766.5 C 2044.81 734.585 2065.81 699.585 2082 661.5 C 2091.12 638.135 2099.46 614.469 2107 590.5 C 2109.25 584.994 2111.75 579.66 2114.5 574.5 Z" stroke-linecap="round" />
</g>
		<g transform="matrix(1 0 0 1 325.38 -177.36)"  >
<path style="stroke: none; stroke-width: 1; stroke-dasharray: none; stroke-linecap: butt; stroke-dashoffset: 0; stroke-linejoin: miter; stroke-miterlimit: 4; fill: rgb(225, 96, 44); fill-rule: evenodd; opacity: 0.987;" vector-effect="non-scaling-stroke"  transform=" translate(-1506.15, -1003.99)" d="M 1617.5 899.5 C 1641.1 899.079 1650.93 910.412 1647 933.5 C 1643.31 943.19 1636.81 950.356 1627.5 955 C 1583.91 974.309 1539.91 992.643 1495.5 1010 C 1481.05 1015.8 1468.88 1024.64 1459 1036.5 C 1447.67 1052.5 1436.33 1068.5 1425 1084.5 C 1419.91 1091.6 1414.07 1098.1 1407.5 1104 C 1393.21 1111.47 1380.38 1109.63 1369 1098.5 C 1364.93 1092.42 1363.59 1085.75 1365 1078.5 C 1367.17 1071.16 1370.17 1064.16 1374 1057.5 C 1392.82 1027.67 1414.32 999.835 1438.5 974 C 1496.87 945.805 1556.54 920.972 1617.5 899.5 Z" stroke-linecap="round" />
</g>
		<g transform="matrix(1 0 0 1 394.66 -120.41)"  >
<path style="stroke: none; stroke-width: 1; stroke-dasharray: none; stroke-linecap: butt; stroke-dashoffset: 0; stroke-linejoin: miter; stroke-miterlimit: 4; fill: rgb(225, 96, 44); fill-rule: evenodd; opacity: 0.987;" vector-effect="non-scaling-stroke"  transform=" translate(-1575.43, -1060.94)" d="M 1689.5 957.5 C 1695.84 957.334 1702.18 957.5 1708.5 958 C 1715.19 968.942 1717.69 980.775 1716 993.5 C 1714.6 997.792 1712.1 1001.29 1708.5 1004 C 1704.16 1007.17 1699.49 1009.84 1694.5 1012 C 1654.9 1029.31 1614.9 1045.64 1574.5 1061 C 1554.62 1069.85 1537.79 1082.69 1524 1099.5 C 1515.17 1111.15 1506.84 1123.15 1499 1135.5 C 1491.78 1145.39 1483.28 1153.89 1473.5 1161 C 1461.6 1166.55 1450.43 1165.38 1440 1157.5 C 1434.95 1150.97 1433.28 1143.64 1435 1135.5 C 1439.13 1118.58 1446.46 1103.24 1457 1089.5 C 1472.74 1068.42 1490.58 1049.26 1510.5 1032 C 1517.17 1026.66 1524.51 1022.33 1532.5 1019 C 1559.38 1006.39 1586.38 994.059 1613.5 982 C 1638.14 971.285 1663.47 963.118 1689.5 957.5 Z" stroke-linecap="round" />
</g>
		<g transform="matrix(1 0 0 1 453.5 -53.7)"  >
<path style="stroke: none; stroke-width: 1; stroke-dasharray: none; stroke-linecap: butt; stroke-dashoffset: 0; stroke-linejoin: miter; stroke-miterlimit: 4; fill: rgb(225, 96, 44); fill-rule: evenodd; opacity: 0.987;" vector-effect="non-scaling-stroke"  transform=" translate(-1634.27, -1127.65)" d="M 1743.5 1023.5 C 1755.3 1021.38 1765.14 1024.71 1773 1033.5 C 1779.19 1048.57 1776.02 1061.4 1763.5 1072 C 1756.27 1076.78 1748.61 1080.78 1740.5 1084 C 1708.05 1097.06 1675.72 1110.39 1643.5 1124 C 1628.69 1130.9 1614.36 1138.57 1600.5 1147 C 1596.33 1150.5 1592.17 1154 1588 1157.5 C 1571.5 1181.66 1553.67 1204.83 1534.5 1227 C 1521.6 1234.98 1509.43 1234.14 1498 1224.5 C 1492.38 1215.49 1491.04 1205.82 1494 1195.5 C 1495.78 1189.93 1498.12 1184.6 1501 1179.5 C 1515.67 1159.5 1530.33 1139.5 1545 1119.5 C 1559.97 1099.21 1579.47 1085.05 1603.5 1077 C 1650.39 1059.37 1697.06 1041.54 1743.5 1023.5 Z" stroke-linecap="round" />
</g>
		<g transform="matrix(1 0 0 1 731.26 98.37)"  >
<path style="stroke: none; stroke-width: 1; stroke-dasharray: none; stroke-linecap: butt; stroke-dashoffset: 0; stroke-linejoin: miter; stroke-miterlimit: 4; fill: rgb(225, 96, 44); fill-rule: evenodd; opacity: 0.996;" vector-effect="non-scaling-stroke"  transform=" translate(-1912.03, -1279.72)" d="M 1776.5 1117.5 C 1789.31 1117.72 1801.98 1119.22 1814.5 1122 C 1842.5 1129.33 1870.5 1136.67 1898.5 1144 C 1967.34 1159.1 2036.34 1159.93 2105.5 1146.5 C 2138.56 1140.4 2171.23 1132.73 2203.5 1123.5 C 2201.91 1133.84 2199.08 1143.84 2195 1153.5 C 2179.42 1186.34 2160.09 1216.67 2137 1244.5 C 2076.05 1317.8 2006.55 1381.3 1928.5 1435 C 1918.59 1441.32 1907.92 1443.32 1896.5 1441 C 1842.05 1417.78 1790.71 1389.45 1742.5 1356 C 1710.89 1332.41 1681.06 1306.57 1653 1278.5 C 1640.12 1265.08 1629.46 1250.08 1621 1233.5 C 1620.28 1231.89 1620.45 1230.39 1621.5 1229 C 1653.24 1217.14 1682.57 1201.14 1709.5 1181 C 1723.79 1169.71 1737.79 1158.04 1751.5 1146 C 1760.41 1136.92 1768.75 1127.42 1776.5 1117.5 Z" stroke-linecap="round" />
</g>
		<g transform="matrix(1 0 0 1 -141.97 194.15)"  >
<path style="stroke: none; stroke-width: 1; stroke-dasharray: none; stroke-linecap: butt; stroke-dashoffset: 0; stroke-linejoin: miter; stroke-miterlimit: 4; fill: rgb(225, 96, 44); fill-rule: evenodd; opacity: 0.976;" vector-effect="non-scaling-stroke"  transform=" translate(-1038.8, -1375.5)" d="M 412.5 1133.5 C 441.21 1133.68 460.876 1147.01 471.5 1173.5 C 502.914 1174.01 534.247 1174.85 565.5 1176 C 568 1177.17 569.833 1179 571 1181.5 C 587.246 1211.66 603.746 1241.66 620.5 1271.5 C 935.166 1272.33 1249.83 1272.83 1564.5 1273 C 1638.74 1283.91 1688.24 1324.74 1713 1395.5 C 1731.22 1468.83 1712.05 1530.33 1655.5 1580 C 1629.04 1600.71 1599.04 1613.05 1565.5 1617 C 1223.17 1617.67 880.833 1617.67 538.5 1617 C 531.255 1609.55 529.755 1601.05 534 1591.5 C 535.833 1588.33 538.333 1585.83 541.5 1584 C 881.5 1583.67 1221.5 1583.33 1561.5 1583 C 1622.16 1573.67 1662 1539.83 1681 1481.5 C 1694.42 1417.21 1674.58 1366.04 1621.5 1328 C 1602.83 1316.22 1582.5 1309.22 1560.5 1307 C 1220.5 1306.67 880.5 1306.33 540.5 1306 C 528.953 1295.39 528.62 1284.39 539.5 1273 C 556.167 1272.67 572.833 1272.33 589.5 1272 C 576.373 1248.91 563.373 1225.75 550.5 1202.5 C 524.83 1201.67 499.163 1202 473.5 1203.5 C 463.84 1236.5 441.84 1252 407.5 1250 C 373.263 1242.1 356.763 1220.6 358 1185.5 C 363.719 1154.94 381.885 1137.61 412.5 1133.5 Z M 410.5 1161.5 C 435.472 1161.3 447.306 1173.64 446 1198.5 C 438.587 1219.96 424.087 1227.12 402.5 1220 C 385.149 1208.94 380.983 1194.11 390 1175.5 C 395.291 1168.45 402.125 1163.78 410.5 1161.5 Z" stroke-linecap="round" />
</g>
		<g transform="matrix(1 0 0 1 -727.23 265.76)"  >
<path style="stroke: none; stroke-width: 1; stroke-dasharray: none; stroke-linecap: butt; stroke-dashoffset: 0; stroke-linejoin: miter; stroke-miterlimit: 4; fill: rgb(225, 96, 44); fill-rule: evenodd; opacity: 0.977;" vector-effect="non-scaling-stroke"  transform=" translate(-453.53, -1447.11)" d="M 271.5 1253.5 C 301.17 1253.31 321.17 1266.98 331.5 1294.5 C 362.168 1294.33 392.835 1294.5 423.5 1295 C 428.712 1297.25 432.212 1301.08 434 1306.5 C 459.833 1353.5 485.667 1400.5 511.5 1447.5 C 525.795 1448.97 540.128 1449.64 554.5 1449.5 C 555.129 1408.09 573.129 1376.93 608.5 1356 C 645.083 1338.15 680.749 1339.81 715.5 1361 C 754.503 1390.34 768.337 1428.84 757 1476.5 C 741.971 1520.19 711.471 1544.69 665.5 1550 C 621.35 1551.51 588.183 1533.35 566 1495.5 C 546.333 1526.17 526.667 1556.83 507 1587.5 C 505.269 1589.62 503.102 1591.12 500.5 1592 C 420.849 1593.46 341.183 1593.96 261.5 1593.5 C 256.486 1616.35 242.82 1631.52 220.5 1639 C 189.183 1645.26 166.017 1634.42 151 1606.5 C 141.116 1579.57 146.616 1556.4 167.5 1537 C 189.331 1521.94 211.997 1520.6 235.5 1533 C 247.562 1540.95 255.895 1551.79 260.5 1565.5 C 336.5 1566.21 412.5 1565.87 488.5 1564.5 C 507.167 1535.5 525.833 1506.5 544.5 1477.5 C 502.505 1476.5 460.505 1476.17 418.5 1476.5 C 412.859 1503.31 396.526 1519.14 369.5 1524 C 337.445 1526.4 315.945 1512.56 305 1482.5 C 298.872 1453.61 308.039 1431.11 332.5 1415 C 360.838 1402.14 385.671 1406.97 407 1429.5 C 411.15 1435.63 414.65 1442.13 417.5 1449 C 438.508 1449.83 459.508 1449.67 480.5 1448.5 C 457.367 1406.21 434.034 1364.04 410.5 1322 C 384.832 1321.67 359.165 1321.83 333.5 1322.5 C 328.61 1345.13 315.277 1360.29 293.5 1368 C 268.278 1374.57 247.111 1368.07 230 1348.5 C 212.981 1323 213.647 1298 232 1273.5 C 242.743 1261.88 255.91 1255.21 271.5 1253.5 Z M 270.5 1281.5 C 292.256 1280.59 304.589 1290.92 307.5 1312.5 C 303.818 1334.68 290.818 1344.52 268.5 1342 C 247.682 1333.52 241.182 1318.69 249 1297.5 C 254.121 1289.19 261.288 1283.85 270.5 1281.5 Z M 648.5 1371.5 C 685.566 1369.61 712.066 1385.27 728 1418.5 C 740.232 1456.47 730.398 1487.3 698.5 1511 C 664.471 1529.29 632.971 1525.79 604 1500.5 C 581.503 1475.34 576.503 1447.01 589 1415.5 C 601.652 1390.94 621.486 1376.28 648.5 1371.5 Z M 355.5 1435.5 C 377.015 1434.51 389.348 1444.68 392.5 1466 C 388.276 1490.1 374.276 1499.76 350.5 1495 C 334.021 1487.21 327.854 1474.37 332 1456.5 C 336.605 1445.72 344.438 1438.72 355.5 1435.5 Z M 201.5 1551.5 C 222.024 1552.19 233.358 1562.69 235.5 1583 C 233.266 1601.4 222.933 1611.57 204.5 1613.5 C 185.838 1611.5 175.505 1601.17 173.5 1582.5 C 175.297 1565.17 184.631 1554.84 201.5 1551.5 Z" stroke-linecap="round" />
</g>
		<g transform="matrix(1 0 0 1 -243.85 265.48)"  >
<path style="stroke: none; stroke-width: 1; stroke-dasharray: none; stroke-linecap: butt; stroke-dashoffset: 0; stroke-linejoin: miter; stroke-miterlimit: 4; fill: rgb(225, 96, 44); fill-rule: evenodd; opacity: 0.976;" vector-effect="non-scaling-stroke"  transform=" translate(-936.92, -1446.83)" d="M 930.5 1343.5 C 977.389 1343.18 1011.22 1363.85 1032 1405.5 C 1047.25 1445.5 1041.59 1482.17 1015 1515.5 C 982.064 1549.11 943.231 1558.27 898.5 1543 C 857.508 1524.3 835.841 1492.3 833.5 1447 C 836.48 1397.7 861.146 1364.7 907.5 1348 C 915.223 1346.05 922.889 1344.55 930.5 1343.5 Z M 927.5 1371.5 C 964.036 1369.68 990.536 1385.01 1007 1417.5 C 1020.05 1457.68 1009.22 1489.52 974.5 1513 C 938.425 1529.96 906.592 1524.13 879 1495.5 C 855.667 1463.17 855.667 1430.83 879 1398.5 C 892.104 1383.87 908.271 1374.87 927.5 1371.5 Z" stroke-linecap="round" />
</g>
		<g transform="matrix(1 0 0 1 42.8 265.52)"  >
<path style="stroke: none; stroke-width: 1; stroke-dasharray: none; stroke-linecap: butt; stroke-dashoffset: 0; stroke-linejoin: miter; stroke-miterlimit: 4; fill: rgb(225, 96, 44); fill-rule: evenodd; opacity: 0.975;" vector-effect="non-scaling-stroke"  transform=" translate(-1223.57, -1446.87)" d="M 1217.5 1343.5 C 1263.57 1343.45 1297.07 1363.79 1318 1404.5 C 1336.83 1456.32 1324.66 1499.15 1281.5 1533 C 1238.23 1558.11 1196.56 1555.78 1156.5 1526 C 1121.63 1492.7 1112.13 1453.2 1128 1407.5 C 1145.77 1369.22 1175.6 1347.89 1217.5 1343.5 Z M 1213.5 1371.5 C 1253.72 1369.68 1281.22 1387.34 1296 1424.5 C 1305.33 1466.67 1290.83 1497.5 1252.5 1517 C 1213.72 1529.63 1182.55 1519.46 1159 1486.5 C 1140.94 1451.46 1145.44 1419.63 1172.5 1391 C 1184.42 1380.71 1198.09 1374.21 1213.5 1371.5 Z" stroke-linecap="round" />
</g>
		<g transform="matrix(1 0 0 1 339.95 265.49)"  >
<path style="stroke: none; stroke-width: 1; stroke-dasharray: none; stroke-linecap: butt; stroke-dashoffset: 0; stroke-linejoin: miter; stroke-miterlimit: 4; fill: rgb(225, 96, 44); fill-rule: evenodd; opacity: 0.976;" vector-effect="non-scaling-stroke"  transform=" translate(-1520.72, -1446.84)" d="M 1514.5 1343.5 C 1568.84 1344.04 1604.34 1370.04 1621 1421.5 C 1630.29 1469.34 1615.12 1507.17 1575.5 1535 C 1532.28 1558.16 1491.28 1554.83 1452.5 1525 C 1419.57 1492.79 1410.07 1454.62 1424 1410.5 C 1441.28 1370.71 1471.45 1348.38 1514.5 1343.5 Z M 1511.5 1371.5 C 1548.57 1369.61 1575.07 1385.27 1591 1418.5 C 1603.23 1456.47 1593.4 1487.3 1561.5 1511 C 1527.47 1529.29 1495.97 1525.79 1467 1500.5 C 1444.5 1475.34 1439.5 1447.01 1452 1415.5 C 1464.65 1390.94 1484.49 1376.28 1511.5 1371.5 Z" stroke-linecap="round" />
</g>
		<g transform="matrix(1 0 0 1 615.58 285.65)"  >
<path style="stroke: none; stroke-width: 1; stroke-dasharray: none; stroke-linecap: butt; stroke-dashoffset: 0; stroke-linejoin: miter; stroke-miterlimit: 4; fill: rgb(225, 96, 44); fill-rule: evenodd; opacity: 0.983;" vector-effect="non-scaling-stroke"  transform=" translate(-1796.35, -1467)" d="M 1739.5 1395.5 C 1755.09 1405.9 1771.09 1415.73 1787.5 1425 C 1808.83 1435.33 1830.17 1445.67 1851.5 1456 C 1857.5 1459.67 1863.5 1463.33 1869.5 1467 C 1871.01 1467.84 1871.51 1469 1871 1470.5 C 1822.4 1496.61 1772.57 1519.28 1721.5 1538.5 C 1745.3 1493.1 1751.3 1445.43 1739.5 1395.5 Z" stroke-linecap="round" />
</g>
		<g transform="matrix(1 0 0 1 -492.84 647.33)"  >
<path style="stroke: none; stroke-width: 1; stroke-dasharray: none; stroke-linecap: butt; stroke-dashoffset: 0; stroke-linejoin: miter; stroke-miterlimit: 4; fill: rgb(225, 96, 44); fill-rule: evenodd; opacity: 0.985;" vector-effect="non-scaling-stroke"  transform=" translate(-687.92, -1828.68)" d="M 676.5 1713.5 C 720.793 1710.88 759.793 1723.71 793.5 1752 C 829.904 1789.7 836.737 1832.2 814 1879.5 C 792.079 1913.07 761.246 1933.57 721.5 1941 C 682.061 1948.36 644.394 1943.03 608.5 1925 C 559.346 1896.86 540.513 1855.02 552 1799.5 C 564.335 1764.36 587.835 1739.86 622.5 1726 C 639.997 1719.07 657.997 1714.9 676.5 1713.5 Z M 684.5 1753.5 C 714.924 1752.81 740.424 1763.47 761 1785.5 C 776.88 1807.8 779.88 1831.8 770 1857.5 C 758.421 1879.4 740.588 1893.57 716.5 1900 C 686.454 1907.66 658.121 1903.66 631.5 1888 C 603.888 1868.25 594.054 1841.75 602 1808.5 C 612.492 1780.68 632.325 1763.52 661.5 1757 C 669.257 1755.45 676.924 1754.28 684.5 1753.5 Z" stroke-linecap="round" />
</g>
		<g transform="matrix(1 0 0 1 -746.26 647.65)"  >
<path style="stroke: none; stroke-width: 1; stroke-dasharray: none; stroke-linecap: butt; stroke-dashoffset: 0; stroke-linejoin: miter; stroke-miterlimit: 4; fill: rgb(225, 96, 44); fill-rule: evenodd; opacity: 0.985;" vector-effect="non-scaling-stroke"  transform=" translate(-434.51, -1829)" d="M 323.5 1718.5 C 340.5 1718.5 357.5 1718.5 374.5 1718.5 C 374.5 1749.83 374.5 1781.17 374.5 1812.5 C 375.552 1812.65 376.552 1812.48 377.5 1812 C 409.196 1780.64 441.196 1749.64 473.5 1719 C 494.164 1718.5 514.831 1718.33 535.5 1718.5 C 534.681 1722.85 532.348 1726.35 528.5 1729 C 498.833 1756.67 469.167 1784.33 439.5 1812 C 473.959 1852.79 508.793 1893.29 544 1933.5 C 545.128 1935.35 545.628 1937.35 545.5 1939.5 C 524.831 1939.67 504.164 1939.5 483.5 1939 C 457.285 1908.07 430.952 1877.24 404.5 1846.5 C 394.213 1855.29 384.38 1864.62 375 1874.5 C 374.5 1896.16 374.333 1917.83 374.5 1939.5 C 357.5 1939.5 340.5 1939.5 323.5 1939.5 C 323.5 1865.83 323.5 1792.17 323.5 1718.5 Z" stroke-linecap="round" />
</g>
		<g transform="matrix(1 0 0 1 -205.77 647.65)"  >
<path style="stroke: none; stroke-width: 1; stroke-dasharray: none; stroke-linecap: butt; stroke-dashoffset: 0; stroke-linejoin: miter; stroke-miterlimit: 4; fill: rgb(225, 96, 44); fill-rule: evenodd; opacity: 0.978;" vector-effect="non-scaling-stroke"  transform=" translate(-975, -1829)" d="M 866.5 1718.5 C 886.503 1718.33 906.503 1718.5 926.5 1719 C 961.64 1767.64 996.973 1816.14 1032.5 1864.5 C 1033.32 1865.39 1034.32 1865.72 1035.5 1865.5 C 1034.56 1854.52 1033.72 1843.52 1033 1832.5 C 1032.5 1794.5 1032.33 1756.5 1032.5 1718.5 C 1049.5 1718.5 1066.5 1718.5 1083.5 1718.5 C 1083.5 1792.17 1083.5 1865.83 1083.5 1939.5 C 1065.5 1939.67 1047.5 1939.5 1029.5 1939 C 991.661 1887 953.661 1835.17 915.5 1783.5 C 915.167 1785 914.833 1786.5 914.5 1788 C 915.499 1799.15 916.332 1810.32 917 1821.5 C 917.5 1860.83 917.667 1900.17 917.5 1939.5 C 900.5 1939.5 883.5 1939.5 866.5 1939.5 C 866.5 1865.83 866.5 1792.17 866.5 1718.5 Z" stroke-linecap="round" />
</g>
		<g transform="matrix(1 0 0 1 39.73 647.65)"  >
<path style="stroke: none; stroke-width: 1; stroke-dasharray: none; stroke-linecap: butt; stroke-dashoffset: 0; stroke-linejoin: miter; stroke-miterlimit: 4; fill: rgb(225, 96, 44); fill-rule: evenodd; opacity: 0.991;" vector-effect="non-scaling-stroke"  transform=" translate(-1220.5, -1829)" d="M 1135.5 1718.5 C 1192.17 1718.5 1248.83 1718.5 1305.5 1718.5 C 1305.5 1731.83 1305.5 1745.17 1305.5 1758.5 C 1266.17 1758.5 1226.83 1758.5 1187.5 1758.5 C 1187.5 1775.17 1187.5 1791.83 1187.5 1808.5 C 1222.83 1808.5 1258.17 1808.5 1293.5 1808.5 C 1293.5 1821.83 1293.5 1835.17 1293.5 1848.5 C 1258.17 1848.5 1222.83 1848.5 1187.5 1848.5 C 1187.5 1865.17 1187.5 1881.83 1187.5 1898.5 C 1226.83 1898.5 1266.17 1898.5 1305.5 1898.5 C 1305.5 1912.17 1305.5 1925.83 1305.5 1939.5 C 1248.83 1939.5 1192.17 1939.5 1135.5 1939.5 C 1135.5 1865.83 1135.5 1792.17 1135.5 1718.5 Z" stroke-linecap="round" />
</g>
		<g transform="matrix(1 0 0 1 268.18 647.6)"  >
<path style="stroke: none; stroke-width: 1; stroke-dasharray: none; stroke-linecap: butt; stroke-dashoffset: 0; stroke-linejoin: miter; stroke-miterlimit: 4; fill: rgb(225, 96, 44); fill-rule: evenodd; opacity: 0.987;" vector-effect="non-scaling-stroke"  transform=" translate(-1448.94, -1828.95)" d="M 1350.5 1718.5 C 1391.86 1718.05 1433.19 1718.55 1474.5 1720 C 1496.04 1722.85 1513.88 1732.35 1528 1748.5 C 1540.28 1766.94 1540.61 1785.6 1529 1804.5 C 1521.24 1813.26 1512.08 1820.09 1501.5 1825 C 1514.16 1829.08 1525.33 1835.58 1535 1844.5 C 1549.63 1863.33 1551.3 1883.33 1540 1904.5 C 1528.28 1920.19 1512.78 1930.35 1493.5 1935 C 1484.3 1937.27 1474.97 1938.6 1465.5 1939 C 1427.17 1939.5 1388.83 1939.67 1350.5 1939.5 C 1350.5 1865.83 1350.5 1792.17 1350.5 1718.5 Z M 1402.5 1756.5 C 1423.54 1756.07 1444.54 1756.57 1465.5 1758 C 1487.68 1765.23 1492.85 1778.73 1481 1798.5 C 1473.65 1804.62 1465.15 1807.79 1455.5 1808 C 1437.84 1808.5 1420.17 1808.67 1402.5 1808.5 C 1402.5 1791.17 1402.5 1773.83 1402.5 1756.5 Z M 1402.5 1844.5 C 1422.84 1844.33 1443.17 1844.5 1463.5 1845 C 1476.83 1845.57 1486.99 1851.41 1494 1862.5 C 1498.93 1880.47 1492.43 1892.3 1474.5 1898 C 1470.23 1899.03 1465.89 1899.7 1461.5 1900 C 1441.84 1900.5 1422.17 1900.67 1402.5 1900.5 C 1402.5 1881.83 1402.5 1863.17 1402.5 1844.5 Z" stroke-linecap="round" />
</g>
		<g transform="matrix(1 0 0 1 430.23 647.65)"  >
<path style="stroke: none; stroke-width: 1; stroke-dasharray: none; stroke-linecap: butt; stroke-dashoffset: 0; stroke-linejoin: miter; stroke-miterlimit: 4; fill: rgb(225, 96, 44); fill-rule: evenodd; opacity: 0.983;" vector-effect="non-scaling-stroke"  transform=" translate(-1611, -1829)" d="M 1585.5 1718.5 C 1602.5 1718.5 1619.5 1718.5 1636.5 1718.5 C 1636.5 1792.17 1636.5 1865.83 1636.5 1939.5 C 1619.5 1939.5 1602.5 1939.5 1585.5 1939.5 C 1585.5 1865.83 1585.5 1792.17 1585.5 1718.5 Z" stroke-linecap="round" />
</g>
</g>
</g>
</svg>